<svg width="210" height="36" viewBox="0 0 210 36" fill="none" xmlns="http://www.w3.org/2000/svg">
<path d="M6.65002 7.40933C6.46397 7.7248 6.71423 8.02892 7.00262 8.02272C7.21103 8.01842 7.42672 8.04751 7.64123 8.11377C7.85557 8.1802 8.05042 8.27848 8.22105 8.40016C8.45691 8.56865 8.8317 8.45816 8.85068 8.09105C8.88508 7.42792 8.58331 6.84722 8.06906 6.68802C7.55516 6.52865 6.9855 6.83931 6.65002 7.40933Z" fill="#FF8C94"/>
<path d="M28.2295 8.59878C28.4243 8.52339 28.6371 8.47658 28.861 8.46574C29.0848 8.45472 29.3012 8.48037 29.5021 8.53647C29.7802 8.61427 30.0963 8.38226 29.992 8.02979C29.8046 7.39385 29.3274 6.95049 28.7905 6.97683C28.2537 7.00299 27.8208 7.49057 27.6939 8.14217C27.6236 8.50291 27.9601 8.70325 28.2295 8.59878Z" fill="#FF8C94"/>
<path d="M36.2707 34.0543C36.5812 33.5629 36.7395 32.9944 36.7395 32.4286C36.7395 30.8075 35.4975 29.3402 33.3094 29.191C33.2784 29.1829 33.2469 29.1767 33.2147 29.1731C30.289 26.1254 28.9474 18.7435 29.7432 14.308C32.4054 14.0969 34.2779 12.5086 34.9773 9.79648C35.2864 8.5974 34.7381 7.67352 33.603 7.45408C33.0464 7.34634 32.6765 7.0109 32.4722 6.42832C32.4656 6.40973 32.4585 6.39148 32.4505 6.37358C31.3768 3.95546 29.5175 3.65616 28.285 3.54515C28.285 3.54051 28.2896 3.53087 28.285 3.53121C27.8394 3.55738 27.2871 3.55548 27.5822 3.22297C28.3691 2.33661 28.5072 1.91787 28.5978 1.59551C28.7981 0.883501 28.0543 0.418463 27.4973 0.511918C24.4368 1.02514 21.4364 3.80194 19.8506 7.56647C19.6434 8.05853 19.2909 8.90272 18.8504 9.98648C18.2906 8.6208 17.1509 5.33044 13.8665 3.59748C12.4201 2.834 10.9985 2.59426 9.51266 2.68806C8.27238 2.76464 5.69421 2.92367 4.30431 6.08892C4.26178 6.13177 3.92358 6.42298 2.45997 6.58218C1.56195 6.68011 0.729333 6.67202 0.720861 6.67185C0.71815 6.67185 0.715437 6.67185 0.712556 6.67185C0.323866 6.67185 0.0063428 6.98939 0.00109022 7.38541C-0.0509273 11.4871 1.76934 13.2736 3.13468 14.0357C3.13637 14.0367 3.13807 14.0381 3.13993 14.0393C3.96204 14.5422 5.0007 14.6606 5.96446 14.6606C6.48718 14.6606 6.96296 14.6262 7.3176 14.59C7.5848 16.3046 8.08193 23.2404 4.70147 29.1931C2.53148 29.3568 1.30983 30.8243 1.30983 32.4287C1.30983 32.9946 1.46808 33.5631 1.77866 34.0545C1.77866 34.0545 2.54571 35.4998 4.88785 35.4998C5.29671 35.4998 11.6442 35.4998 12.5344 35.4998C12.9274 35.4998 13.2461 35.1761 13.2461 34.777C13.2461 34.378 12.9274 34.0545 12.5344 34.0545C11.6484 34.0545 5.43158 34.0545 4.65284 34.0545C3.32665 34.0545 2.73277 33.2376 2.73277 32.4287C2.73277 31.3988 3.61859 30.6715 4.98054 30.628C5.60509 30.7687 6.36146 31.1286 6.67204 32.0284C6.80251 32.4058 7.20915 32.6032 7.57938 32.4712C7.95011 32.3391 8.1453 31.9267 8.01517 31.5498C7.69443 30.6212 7.04954 29.9211 6.15796 29.5093C9.32577 23.6323 9.08636 16.8593 8.74105 14.5408C8.677 14.1128 8.5118 13.576 8.47893 13.5013C8.35015 13.2073 8.03804 13.0294 7.71459 13.0836C7.09597 13.1865 5.41243 13.3662 4.24653 12.9691C4.21264 12.9576 4.17994 12.9454 4.14825 12.9332C2.87306 12.3686 2.02926 11.2591 1.65142 9.67566C2.1133 9.56929 2.78258 9.1867 3.21787 7.93788C4.56084 7.72171 5.32314 7.32156 5.5978 6.69233C6.2542 5.18793 7.1895 4.57677 8.22273 4.31517C8.75731 4.17989 10.1347 3.9904 11.3057 4.78692C11.6334 5.00963 11.897 5.37467 12.0556 5.84056C12.3204 6.61867 12.129 7.48799 11.5166 8.28846C9.92965 10.3632 9.5291 11.4217 9.67549 12.7982C9.76784 13.666 10.2335 14.3775 10.9866 14.8016C12.0212 15.3843 13.3764 15.4038 14.4103 14.7554C15.5237 14.0572 16.1687 12.8147 16.4815 10.72C16.4822 10.7162 16.483 10.7124 16.4839 10.7087C16.2134 10.0056 15.7848 9.03989 15.2576 8.36712C15.2986 8.95074 15.3818 9.68684 15.2127 10.4658C14.8725 12.0301 14.6568 12.8147 13.791 13.454C13.1212 13.9482 12.2357 13.852 11.6771 13.5373C11.3304 13.3419 11.1332 13.0409 11.0908 12.6428C11.0115 11.8984 11.0935 11.198 12.6407 9.17534C13.6154 7.90105 13.9242 6.28495 13.182 4.8592C13.3603 4.9518 13.5661 5.07382 13.7596 5.21598C13.7596 5.21598 14.752 5.85416 15.7905 7.21313C16.0914 7.60709 17.147 9.02009 18.0876 11.8872C15.9356 17.3152 12.7886 25.8457 12.7886 29.3108C12.7886 32.7235 15.522 35.5 18.8817 35.5C22.2415 35.5 24.9751 32.7235 24.9751 29.3108C24.9751 27.4348 23.8746 23.4338 21.7044 17.4186C21.2083 16.0442 20.7051 14.7014 20.2335 13.4762L19.5105 15.5662C21.4115 20.629 23.5516 26.9493 23.5516 29.311C23.5516 31.9265 21.4569 34.0548 18.8817 34.0548C16.3066 34.0548 14.2119 31.9267 14.2119 29.311C14.2119 25.6485 18.2591 15.3184 19.621 11.9036L19.62 11.9014C20.3796 9.99612 20.9685 8.58862 21.1595 8.13546C22.1685 5.73937 24.2082 3.1512 26.6928 2.22199C24.8361 4.02809 25.501 4.97417 26.1805 4.97417C27.0981 4.97417 27.2835 4.97417 28.0202 4.97417C29.1639 5.06986 30.358 5.20049 31.1423 6.94378C31.4503 7.7983 32.0276 8.41169 32.7967 8.71701C32.6303 9.14109 32.5019 9.86859 33.3285 10.2486C32.7026 11.7499 31.3307 13.149 28.3593 12.8473C27.9668 12.8072 27.6195 13.0975 27.5805 13.4947C27.5416 13.8921 27.8267 14.2462 28.218 14.2857C28.2464 14.2887 28.2744 14.2902 28.3028 14.2928C27.9362 16.5985 28.0692 19.6165 28.6746 22.4933C29.3039 25.4831 30.3686 27.9706 31.7157 29.6363C30.9532 30.0583 30.3978 30.7106 30.1079 31.5499C29.9447 32.022 30.2919 32.5122 30.7792 32.5122C31.0728 32.5122 31.348 32.3262 31.4508 32.0284C31.7599 31.1333 32.51 30.7727 33.1328 30.6304C36.0746 30.7705 35.9474 34.0545 33.397 34.0545C32.2094 34.0545 26.3973 34.0545 25.236 34.0545C24.8433 34.0545 24.5245 34.378 24.5245 34.777C24.5245 35.1761 24.8433 35.4998 25.236 35.4998C26.3984 35.4998 31.1462 35.4998 33.397 35.4998C35.6471 35.4997 36.2707 34.0543 36.2707 34.0543Z" fill="#FF8C94"/>
<path fill-rule="evenodd" clip-rule="evenodd" d="M55.3803 31.6111H49.4277V5.34592H59.9086C62.0267 5.34592 63.8405 5.72474 65.35 6.48239C66.8716 7.24004 68.0341 8.28031 68.8376 9.60319C69.6532 10.914 70.061 12.4173 70.061 14.113C70.061 15.8087 69.6532 17.2819 68.8376 18.5326C68.0341 19.7834 66.8716 20.7575 65.35 21.455C63.8405 22.1405 62.0267 22.4832 59.9086 22.4832H55.3803V31.6111ZM62.2824 17.4322C61.6859 17.7569 60.8947 17.9193 59.9086 17.9193H55.3803V9.90986H59.9086C60.8947 9.90986 61.6859 10.1083 62.2824 10.5052C62.891 10.902 63.3354 11.4252 63.6153 12.0746C63.9075 12.712 64.0536 13.4035 64.0536 14.1491C64.0536 14.8707 63.9075 15.5201 63.6153 16.0973C63.3354 16.6626 62.891 17.1075 62.2824 17.4322Z" fill="#190E0F"/>
<path d="M92.1273 27.0652V31.6111H74.0503V5.34592H92.1455V9.90986H80.0029V15.9169H90.3013V20.3185H80.0029V27.0652H92.1273Z" fill="#190E0F"/>
<path d="M108.168 31.6111H102.234V9.90986H94.3089V5.34592H116.257V9.90986H108.168V31.6111Z" fill="#190E0F"/>
<path d="M136.917 27.0652V31.6111H119.571V5.34592H125.523V27.0652H136.917Z" fill="#190E0F"/>
<path d="M187.13 5.34592V31.6111H181.196L171.153 14.6361V31.6111H165.201V5.34592H171.153L181.214 22.3209V5.34592H187.13Z" fill="#190E0F"/>
<path d="M209.982 27.0652V31.6111H191.905V5.34592H210V9.90986H197.857V15.9169H208.156V20.3185H197.857V27.0652H209.982Z" fill="#190E0F"/>
<path d="M148.001 16.8713C148.007 16.8704 148.013 16.8692 148.018 16.8686C149.81 16.6855 151.946 17.4807 153.303 18.6396C154.821 19.9398 155.867 21.7114 156.278 23.6762C156.401 24.2561 156.457 24.8529 156.505 25.4432C156.59 26.4811 156.404 27.2568 155.719 28.0628C154.142 29.9199 151.487 30.7599 149.145 30.9505C147.177 31.0199 145.579 30.8145 143.795 29.9272C143.197 29.6294 142.64 29.2954 142.121 28.8696C141.413 28.2899 140.66 27.4364 140.567 26.4806C140.531 26.1139 140.553 25.7361 140.573 25.3687C140.688 23.39 141.352 21.3287 142.619 19.7911C144.005 18.1097 145.834 17.0773 148.001 16.8713Z" fill="#190E0F"/>
<path d="M152.983 5.04524C153.607 5.04462 154.222 5.3116 154.685 5.72604C155.594 6.53939 156.041 7.76574 156.105 8.96828C156.188 10.5249 155.742 12.1836 154.69 13.3581C154.06 14.0616 153.306 14.5825 152.345 14.6304C151.746 14.6419 151.164 14.4289 150.712 14.0326C149.731 13.1848 149.304 11.9177 149.208 10.6532C149.095 9.17734 149.533 7.54071 150.504 6.40865C151.185 5.6145 151.931 5.12662 152.983 5.04524Z" fill="#190E0F"/>
<path d="M143.957 5.04378L143.992 5.04129C144.815 4.98978 145.578 5.41266 146.179 5.94447C147.276 6.91469 147.87 8.4713 147.957 9.91457C148.034 11.1796 147.773 12.6673 146.908 13.6409C146.439 14.1676 145.849 14.5016 145.143 14.5426C144.377 14.5679 143.739 14.3338 143.137 13.8577C142.016 12.9717 141.304 11.5781 141.135 10.1608C140.972 8.78656 141.184 7.28601 142.057 6.17746C142.561 5.53887 143.146 5.14087 143.957 5.04378Z" fill="#190E0F"/>
<path d="M158.631 12.1181C159.138 12.0713 159.604 12.1631 160.031 12.4538C160.717 12.9214 161.161 13.7744 161.311 14.58C161.559 15.9192 161.222 17.3214 160.461 18.4379C159.828 19.3673 158.979 19.9983 157.869 20.2012C157.844 20.2055 157.82 20.2099 157.795 20.2132C157.191 20.2963 156.58 20.1321 156.097 19.7574C155.459 19.2544 155.146 18.4473 155.05 17.6572C154.886 16.3017 155.291 14.7774 156.135 13.7069C156.767 12.9047 157.595 12.2414 158.631 12.1181Z" fill="#190E0F"/>
<path d="M138.231 12.1191C138.924 12.0677 139.67 12.3881 140.206 12.813C141.257 13.6458 141.993 15.0221 142.139 16.3571C142.251 17.3662 142.149 18.5188 141.488 19.3347C141.05 19.8762 140.5 20.1317 139.82 20.2042C139.018 20.2193 138.229 19.8728 137.612 19.3714C136.577 18.531 135.961 17.2468 135.83 15.9262C135.73 14.9268 135.92 13.7901 136.571 12.9996C137.001 12.4767 137.563 12.1834 138.231 12.1191Z" fill="#190E0F"/>
</svg>
